<?xml version="1.0" encoding="utf-8"?>
<!-- Generator: Adobe Illustrator 15.0.2, SVG Export Plug-In . SVG Version: 6.00 Build 0)  -->
<!DOCTYPE svg PUBLIC "-//W3C//DTD SVG 1.1//EN" "http://www.w3.org/Graphics/SVG/1.1/DTD/svg11.dtd">
<svg version="1.1" id="Layer_1" xmlns="http://www.w3.org/2000/svg" xmlns:xlink="http://www.w3.org/1999/xlink" x="0px" y="0px"
	 width="512px" height="512px" viewBox="0 0 512 512" enable-background="new 0 0 512 512" xml:space="preserve">
<path d="M248.827,511.593c-1.647,2.837-7.016-4.03-18.203-23.276c-8.726-15.009-25.41-43.984-37.076-64.387l-21.209-37.092H99.193
	c-40.231,0-73.146-1.121-73.146-2.492c0-1.367,15.792-29.842,35.092-63.277c19.301-33.432,35.126-62.212,35.165-63.956
	c0.039-1.743-15.752-30.652-35.094-64.242c-19.34-33.59-35.164-61.947-35.164-63.015c0-1.069,32.542-1.944,72.319-1.944h72.319
	l7.884-12.573c4.336-6.915,20.89-35.673,36.786-63.906C231.251,23.198,245.137,0.054,246.209,0
	c1.073-0.054,11.431,16.595,23.021,36.996c11.59,20.4,27.981,48.875,36.428,63.276l15.36,26.184l73.677,1.455l73.68,1.455
	l-35.041,60.906c-19.271,33.497-35.622,62.435-36.338,64.307c-0.713,1.872,15.026,31.737,34.979,66.369
	c19.949,34.632,36.274,63.602,36.274,64.378s-33.359,1.762-74.135,2.19l-74.134,0.777l-34.409,59.638
	C266.646,480.733,250.112,509.382,248.827,511.593"/>
<path fill="#FFFFFF" d="M264.217,417.222c8.894-15.293,16.169-28.385,16.169-29.095s-14.957-1.289-33.238-1.289
	c-18.279,0-33.236,0.776-33.236,1.725c0,3.251,30.345,56.331,32.24,56.395C247.192,444.992,255.322,432.51,264.217,417.222z"/>
<path fill="#FFFFFF" d="M149.844,349.326c-2.918-7.879-30.162-55.535-31.759-55.559c-1.745-0.025-34.235,53.947-34.235,56.868
	c0,0.707,15.066,1.289,33.479,1.289C135.788,351.925,150.376,350.758,149.844,349.326z"/>
<path fill="#FFFFFF" d="M307.267,341.016c3.697-6.001,16.154-27.475,27.684-47.717l20.961-36.81l-26.455-46.092
	c-14.552-25.351-27.967-47.077-29.813-48.281c-1.848-1.203-26.773-1.863-55.384-1.469l-52.024,0.72l-15.896,26.765
	c-8.744,14.721-21,36.404-27.239,48.184l-11.341,21.416l26.797,47.099l26.795,47.094h54.598h54.596L307.267,341.016z"/>
<path fill="#FFFFFF" d="M407.555,349.21c0-3.802-29.94-55.384-32.175-55.431c-2.069-0.046-31.41,52.035-31.41,55.749
	c0,1.316,14.309,2.396,31.793,2.396C393.504,351.925,407.555,350.726,407.555,349.21z"/>
<path fill="#FFFFFF" d="M134.19,193.146c8.912-15.322,15.461-29.068,14.555-30.546c-1.963-3.196-61.062-3.666-63.005-0.501
	c-1.145,1.863,29.351,58.908,31.491,58.908C117.645,221.007,125.277,208.471,134.19,193.146z"/>
<path fill="#FFFFFF" d="M392.745,192.267c8.146-14.207,14.81-27.299,14.81-29.093c0-3.472-61.026-4.867-64.396-1.474
	c-0.979,0.984-0.053,4.584,2.054,8c2.109,3.418,9.252,15.705,15.876,27.306c6.621,11.6,13.12,21.091,14.441,21.091
	C376.854,218.098,384.6,206.474,392.745,192.267z"/>
<path fill="#FFFFFF" d="M279.609,124.274c-0.768-2.001-8.562-15.905-17.322-30.898l-15.922-27.262l-12.244,21.443
	c-6.734,11.793-14.036,24.342-16.228,27.886c-7.233,11.7-5.417,12.467,29.564,12.467
	C273.113,127.911,280.676,127.056,279.609,124.274z"/>
</svg>
